<mxfile host="app.diagrams.net" agent="Mozilla/5.0 (Windows NT 10.0; Win64; x64) AppleWebKit/537.36 (KHTML, like Gecko) Chrome/135.0.0.0 Safari/537.36" version="26.2.3">
  <diagram name="PÃ¡gina-1" id="1RNo0ZkMNeETAtnwx-lc">
    <mxGraphModel dx="1044" dy="527" grid="1" gridSize="10" guides="1" tooltips="1" connect="1" arrows="1" fold="1" page="1" pageScale="1" pageWidth="827" pageHeight="1169" math="0" shadow="0">
      <root>
        <mxCell id="0" />
        <mxCell id="1" parent="0" />
        <mxCell id="dH83cmoSlpsKdXJRnKVg-13" style="edgeStyle=orthogonalEdgeStyle;rounded=0;orthogonalLoop=1;jettySize=auto;html=1;entryX=0;entryY=0.5;entryDx=0;entryDy=0;" edge="1" parent="1" source="dH83cmoSlpsKdXJRnKVg-1" target="dH83cmoSlpsKdXJRnKVg-2">
          <mxGeometry relative="1" as="geometry" />
        </mxCell>
        <mxCell id="dH83cmoSlpsKdXJRnKVg-17" style="edgeStyle=orthogonalEdgeStyle;rounded=0;orthogonalLoop=1;jettySize=auto;html=1;entryX=0;entryY=0.5;entryDx=0;entryDy=0;" edge="1" parent="1" source="dH83cmoSlpsKdXJRnKVg-1" target="dH83cmoSlpsKdXJRnKVg-16">
          <mxGeometry relative="1" as="geometry" />
        </mxCell>
        <mxCell id="dH83cmoSlpsKdXJRnKVg-1" value="Atendente" style="shape=umlActor;verticalLabelPosition=bottom;verticalAlign=top;html=1;outlineConnect=0;" vertex="1" parent="1">
          <mxGeometry x="30" y="20" width="30" height="60" as="geometry" />
        </mxCell>
        <mxCell id="dH83cmoSlpsKdXJRnKVg-4" style="edgeStyle=orthogonalEdgeStyle;rounded=0;orthogonalLoop=1;jettySize=auto;html=1;" edge="1" parent="1" source="dH83cmoSlpsKdXJRnKVg-2" target="dH83cmoSlpsKdXJRnKVg-3">
          <mxGeometry relative="1" as="geometry">
            <Array as="points">
              <mxPoint x="410" y="100" />
              <mxPoint x="710" y="100" />
            </Array>
          </mxGeometry>
        </mxCell>
        <mxCell id="dH83cmoSlpsKdXJRnKVg-5" value="Venda Prospect PJ" style="edgeLabel;html=1;align=center;verticalAlign=middle;resizable=0;points=[];" vertex="1" connectable="0" parent="dH83cmoSlpsKdXJRnKVg-4">
          <mxGeometry x="0.043" y="-1" relative="1" as="geometry">
            <mxPoint as="offset" />
          </mxGeometry>
        </mxCell>
        <mxCell id="dH83cmoSlpsKdXJRnKVg-2" value="NETSALES" style="rounded=1;whiteSpace=wrap;html=1;fillColor=#fff2cc;strokeColor=#d6b656;" vertex="1" parent="1">
          <mxGeometry x="350" y="20" width="120" height="60" as="geometry" />
        </mxCell>
        <mxCell id="dH83cmoSlpsKdXJRnKVg-3" value="Nova Tela Cadastro CPF x PJ" style="rounded=1;whiteSpace=wrap;html=1;fillColor=#fff2cc;strokeColor=#d6b656;" vertex="1" parent="1">
          <mxGeometry x="650" y="150" width="120" height="60" as="geometry" />
        </mxCell>
        <mxCell id="dH83cmoSlpsKdXJRnKVg-6" value="NETSMS" style="shape=cylinder3;whiteSpace=wrap;html=1;boundedLbl=1;backgroundOutline=1;size=15;verticalAlign=top;" vertex="1" parent="1">
          <mxGeometry x="240" y="230" width="350" height="200" as="geometry" />
        </mxCell>
        <mxCell id="dH83cmoSlpsKdXJRnKVg-7" value="PF X PJ" style="swimlane;fontStyle=0;childLayout=stackLayout;horizontal=1;startSize=30;horizontalStack=0;resizeParent=1;resizeParentMax=0;resizeLast=0;collapsible=1;marginBottom=0;whiteSpace=wrap;html=1;fillColor=#fff2cc;strokeColor=#d6b656;" vertex="1" parent="1">
          <mxGeometry x="263" y="292" width="140" height="120" as="geometry" />
        </mxCell>
        <mxCell id="dH83cmoSlpsKdXJRnKVg-8" value="CPF" style="text;strokeColor=none;fillColor=none;align=left;verticalAlign=middle;spacingLeft=4;spacingRight=4;overflow=hidden;points=[[0,0.5],[1,0.5]];portConstraint=eastwest;rotatable=0;whiteSpace=wrap;html=1;" vertex="1" parent="dH83cmoSlpsKdXJRnKVg-7">
          <mxGeometry y="30" width="140" height="30" as="geometry" />
        </mxCell>
        <mxCell id="dH83cmoSlpsKdXJRnKVg-9" value="Email" style="text;strokeColor=none;fillColor=none;align=left;verticalAlign=middle;spacingLeft=4;spacingRight=4;overflow=hidden;points=[[0,0.5],[1,0.5]];portConstraint=eastwest;rotatable=0;whiteSpace=wrap;html=1;" vertex="1" parent="dH83cmoSlpsKdXJRnKVg-7">
          <mxGeometry y="60" width="140" height="30" as="geometry" />
        </mxCell>
        <mxCell id="dH83cmoSlpsKdXJRnKVg-10" value="Contrato" style="text;strokeColor=none;fillColor=none;align=left;verticalAlign=middle;spacingLeft=4;spacingRight=4;overflow=hidden;points=[[0,0.5],[1,0.5]];portConstraint=eastwest;rotatable=0;whiteSpace=wrap;html=1;" vertex="1" parent="dH83cmoSlpsKdXJRnKVg-7">
          <mxGeometry y="90" width="140" height="30" as="geometry" />
        </mxCell>
        <mxCell id="dH83cmoSlpsKdXJRnKVg-12" style="edgeStyle=orthogonalEdgeStyle;rounded=0;orthogonalLoop=1;jettySize=auto;html=1;entryX=1.033;entryY=0.17;entryDx=0;entryDy=0;entryPerimeter=0;" edge="1" parent="1" source="dH83cmoSlpsKdXJRnKVg-3" target="dH83cmoSlpsKdXJRnKVg-7">
          <mxGeometry relative="1" as="geometry">
            <Array as="points">
              <mxPoint x="710" y="312" />
            </Array>
          </mxGeometry>
        </mxCell>
        <mxCell id="dH83cmoSlpsKdXJRnKVg-14" value="API PROPOSALS/&lt;div&gt;CONFIRMATIONS&lt;/div&gt;" style="rounded=1;whiteSpace=wrap;html=1;fillColor=#fff2cc;strokeColor=#d6b656;" vertex="1" parent="1">
          <mxGeometry x="110" y="180" width="120" height="60" as="geometry" />
        </mxCell>
        <mxCell id="dH83cmoSlpsKdXJRnKVg-15" style="edgeStyle=orthogonalEdgeStyle;rounded=0;orthogonalLoop=1;jettySize=auto;html=1;entryX=-0.001;entryY=0.157;entryDx=0;entryDy=0;entryPerimeter=0;" edge="1" parent="1" source="dH83cmoSlpsKdXJRnKVg-14" target="dH83cmoSlpsKdXJRnKVg-7">
          <mxGeometry relative="1" as="geometry">
            <Array as="points">
              <mxPoint x="170" y="310" />
              <mxPoint x="243" y="310" />
            </Array>
          </mxGeometry>
        </mxCell>
        <mxCell id="dH83cmoSlpsKdXJRnKVg-18" style="edgeStyle=orthogonalEdgeStyle;rounded=0;orthogonalLoop=1;jettySize=auto;html=1;entryX=0.5;entryY=0;entryDx=0;entryDy=0;" edge="1" parent="1" source="dH83cmoSlpsKdXJRnKVg-16" target="dH83cmoSlpsKdXJRnKVg-14">
          <mxGeometry relative="1" as="geometry" />
        </mxCell>
        <mxCell id="dH83cmoSlpsKdXJRnKVg-19" value="Venda Prospect PJ" style="edgeLabel;html=1;align=center;verticalAlign=middle;resizable=0;points=[];" vertex="1" connectable="0" parent="dH83cmoSlpsKdXJRnKVg-18">
          <mxGeometry x="-0.29" y="-2" relative="1" as="geometry">
            <mxPoint as="offset" />
          </mxGeometry>
        </mxCell>
        <mxCell id="dH83cmoSlpsKdXJRnKVg-16" value="SOLAR" style="rounded=1;whiteSpace=wrap;html=1;" vertex="1" parent="1">
          <mxGeometry x="110" y="80" width="120" height="60" as="geometry" />
        </mxCell>
      </root>
    </mxGraphModel>
  </diagram>
</mxfile>
